<svg id="_x33_0" enable-background="new 0 0 64 64" height="512" viewBox="0 0 64 64" width="512" xmlns="http://www.w3.org/2000/svg" xmlns:xlink="http://www.w3.org/1999/xlink"><linearGradient id="SVGID_1_" gradientUnits="userSpaceOnUse" x1="32" x2="32" y1="63" y2="1"><stop offset="0" stop-color="#9f2fff"/><stop offset="1" stop-color="#0bb1d3"/></linearGradient><path d="m35 20c0-1.654-1.346-3-3-3s-3 1.346-3 3c0 1.302.839 2.402 2 2.816v2.243c-1.733.193-3.316.88-4.611 1.916l-1.59-1.59c.529-1.114.344-2.484-.577-3.405-1.17-1.17-3.072-1.17-4.242 0s-1.17 3.072 0 4.242c.585.585 1.353.877 2.121.877.441 0 .878-.108 1.284-.3l1.591 1.591c-1.036 1.295-1.723 2.878-1.916 4.611h-2.243c-.414-1.161-1.514-2-2.816-2-1.654 0-3 1.346-3 3s1.346 3 3 3c1.302 0 2.402-.839 2.816-2h2.243c.193 1.733.88 3.316 1.916 4.611l-1.59 1.59c-1.114-.529-2.484-.344-3.405.577-1.17 1.17-1.17 3.072 0 4.242.585.585 1.353.877 2.121.877s1.536-.292 2.121-.877c.921-.921 1.105-2.291.577-3.405l1.59-1.59c1.295 1.036 2.878 1.723 4.611 1.916v2.243c-1.161.414-2 1.514-2 2.816 0 1.654 1.346 3 3 3s3-1.346 3-3c0-1.302-.839-2.402-2-2.816v-2.243c1.733-.193 3.316-.88 4.611-1.916l1.59 1.59c-.529 1.114-.344 2.484.577 3.405.585.585 1.353.877 2.121.877s1.536-.292 2.121-.877c1.17-1.17 1.17-3.072 0-4.242-.921-.921-2.291-1.105-3.405-.577l-1.59-1.59c1.036-1.295 1.723-2.878 1.916-4.611h2.243c.414 1.161 1.514 2 2.816 2 1.654 0 3-1.346 3-3s-1.346-3-3-3c-1.302 0-2.402.839-2.816 2h-2.243c-.193-1.733-.88-3.316-1.916-4.611l1.591-1.591c.406.193.843.3 1.284.3.769 0 1.536-.292 2.121-.877 1.17-1.17 1.17-3.072 0-4.242s-3.072-1.17-4.242 0c-.921.921-1.105 2.291-.577 3.405l-1.59 1.59c-1.295-1.036-2.878-1.723-4.611-1.916v-2.243c1.159-.414 1.998-1.514 1.998-2.816zm-3-1c.552 0 1 .448 1 1s-.448 1-1 1-1-.448-1-1 .448-1 1-1zm-1.008 8.081c-.044 1.064-.917 1.919-1.992 1.919-.495 0-.949-.193-1.307-.507.938-.735 2.067-1.233 3.299-1.412zm-9.598-2.273c-.39-.39-.39-1.024 0-1.414.195-.195.451-.292.707-.292s.512.097.707.292c.39.39.39 1.024 0 1.414-.391.39-1.024.39-1.414 0zm-3.394 10.192c-.552 0-1-.448-1-1s.448-1 1-1 1 .448 1 1-.448 1-1 1zm4.808 9.606c-.391.391-1.023.391-1.414 0-.39-.39-.39-1.024 0-1.414.195-.195.451-.292.707-.292s.512.097.707.292c.389.39.389 1.025 0 1.414zm7.192-7.606c-.552 0-1-.448-1-1s.448-1 1-1 1 .448 1 1-.448 1-1 1zm2 2c1.004 0 1.83.747 1.971 1.713-.626.184-1.286.287-1.971.287s-1.345-.103-1.971-.287c.141-.966.967-1.713 1.971-1.713zm0 10c-.552 0-1-.448-1-1s.448-1 1-1 1 .448 1 1-.448 1-1 1zm3.815-9.139c-.42-1.402-1.572-2.489-3.024-2.781.13-.336.209-.698.209-1.08 0-1.654-1.346-3-3-3s-3 1.346-3 3c0 1.199.712 2.228 1.731 2.708-.244.347-.421.738-.546 1.153-1.914-1.25-3.185-3.409-3.185-5.861 0-1.511.486-2.908 1.304-4.054.724.664 1.674 1.054 2.696 1.054 2.179 0 3.949-1.752 3.992-3.921 1.13.161 2.172.59 3.062 1.225-.664.724-1.054 1.674-1.054 2.696 0 2.179 1.752 3.949 3.921 3.992-.291 2.036-1.455 3.791-3.106 4.869zm1.692-10.168c.735.938 1.233 2.066 1.412 3.298-1.064-.043-1.919-.916-1.919-1.991 0-.495.193-.949.507-1.307zm5.099 13.499c.39.39.39 1.024 0 1.414-.391.391-1.023.391-1.414 0-.39-.39-.39-1.024 0-1.414.195-.195.451-.292.707-.292s.512.097.707.292zm3.394-10.192c.552 0 1 .448 1 1s-.448 1-1 1-1-.448-1-1 .448-1 1-1zm-4.808-9.606c.195-.195.451-.292.707-.292s.512.097.707.292c.39.39.39 1.024 0 1.414-.391.391-1.023.391-1.414 0-.389-.39-.389-1.025 0-1.414zm18.406-7.578 1.473-1.473-1.414-1.414-1.473 1.473c-.915-.686-2.001-1.152-3.184-1.322v-2.08h-2v2.08c-1.183.17-2.269.636-3.184 1.322l-1.473-1.473-1.414 1.414 1.473 1.473c-.503.672-.89 1.434-1.127 2.261-1.193-1.907-2.489-3.749-3.809-5.474.235-.133.459-.286.655-.482l6-6c.566-.566.879-1.32.879-2.121s-.313-1.555-.879-2.121c-1.133-1.133-3.109-1.133-4.242 0l-6 6c-.057.057-.102.123-.154.184-3.767-4.254-7.043-7.063-7.725-7.063-.596 0-3.168 2.141-6.316 5.511-.128-.528-.39-1.017-.785-1.411-1.134-1.133-3.112-1.133-4.242 0-.566.566-.879 1.32-.879 2.121 0 .454.11.888.3 1.286l-1.613 1.613c-.722-.516-1.56-.875-2.465-1.03v-2.274c1.161-.414 2-1.514 2-2.816 0-1.654-1.346-3-3-3s-3 1.346-3 3c0 1.302.839 2.402 2 2.816v2.274c-.909.154-1.749.51-2.471 1.025l-1.607-1.607c.19-.398.3-.832.3-1.286 0-.801-.312-1.554-.878-2.121-.001 0-.001 0-.001 0-1.132-1.133-3.109-1.133-4.242 0-.566.566-.879 1.32-.879 2.121 0 .802.312 1.556.879 2.121.566.566 1.32.879 2.121.879.454 0 .888-.11 1.286-.3l1.607 1.607c-.515.722-.871 1.562-1.025 2.471h-2.274c-.414-1.161-1.514-2-2.816-2-1.654 0-3 1.346-3 3s1.346 3 3 3c1.302 0 2.402-.839 2.816-2h2.274c.154.909.51 1.749 1.025 2.471l-1.618 1.618c-1.111-.501-2.509-.319-3.397.568v.001c-.566.566-.879 1.319-.879 2.121 0 .801.312 1.555.879 2.121s1.32.879 2.121.879c.802 0 1.556-.312 2.121-.879.566-.566.879-1.32.879-2.121 0-.454-.11-.888-.3-1.286l1.607-1.607c.982.698 2.178 1.114 3.472 1.114.005 0 .009-.001.014-.001-2.367 4.348-4.014 8.877-4.014 13.001 0 1.02.098 2.015.239 2.997l-5.118-5.118c-1.133-1.133-3.109-1.133-4.242 0-.567.566-.879 1.32-.879 2.121s.312 1.555.879 2.121l6 6c.566.567 1.32.879 2.121.879s1.555-.312 2.121-.879c.134-.134.251-.28.356-.434 1.096 2.774 2.757 5.261 4.854 7.312h-13.331c-1.654 0-3 1.346-3 3s1.346 3 3 3h10c.552 0 1 .448 1 1s-.448 1-1 1h-4c-1.654 0-3 1.346-3 3s1.346 3 3 3h40c1.654 0 3-1.346 3-3s-1.346-3-3-3h-4c-.552 0-1-.448-1-1s.448-1 1-1h13c2.206 0 4-1.794 4-4s-1.794-4-4-4h-10.539c2.833-3.579 4.539-8.09 4.539-12.999 0-2.389-.56-4.915-1.483-7.462.476.181.973.309 1.483.382v2.08h2v-2.08c1.183-.17 2.269-.636 3.184-1.322l1.473 1.473 1.414-1.414-1.473-1.473c.686-.915 1.151-2.001 1.322-3.184h2.08v-2h-2.08c-.17-1.183-.636-2.269-1.322-3.184zm-51.305 21.063-1.414 1.414-1.172-1.172 1.414-1.414zm-5.293-2.879c0-.271.102-.516.293-.707s.436-.293.707-.293.516.102.707.293l1 1-1.414 1.414-1-1c-.191-.191-.293-.436-.293-.707zm7.707 6.707c-.383.383-1.031.383-1.414 0l-1-1 1.414-1.414 1 1c.191.191.293.436.293.707s-.102.516-.293.707zm47.275-17.716c-.519-.02-.982-.448-.982-.991 0-.552.448-1 1-1 .307 0 .595.145.783.378-.171.59-.44 1.134-.801 1.613zm-2.982-6.991c0 .552-.448 1-1 1s-1-.448-1-1 .448-1 1-1 1 .448 1 1zm-3.998.024c.013 1.643 1.352 2.976 2.998 2.976s2.985-1.333 2.998-2.976c.99.748 1.693 1.846 1.916 3.117-.29-.092-.597-.141-.914-.141-1.654 0-3 1.346-3 3 0 1.004.5 1.89 1.26 2.435-.682.349-1.442.565-2.26.565-.805 0-1.58-.196-2.276-.553.77-.543 1.276-1.435 1.276-2.447 0-1.654-1.346-3-3-3-.317 0-.624.049-.913.141.222-1.271.925-2.369 1.915-3.117zm-1.796 5.374c.186-.244.479-.398.794-.398.552 0 1 .448 1 1 0 .544-.465.973-.984.991-.258-.533-.528-1.064-.81-1.593zm-4.085-13.105-1.414-1.414 1.172-1.172 1.414 1.414zm3.586-5c.191.191.293.436.293.707s-.102.516-.293.707l-1 1-1.414-1.414 1-1c.383-.383 1.031-.383 1.414 0zm-7.414 6 1-1 1.414 1.414-1 1c-.146.146-.332.218-.528.254-.368-.456-.735-.899-1.101-1.333.05-.122.117-.237.215-.335zm-24.293 2.707c0 .552-.448 1-1 1s-1-.448-1-1c0-.43.281-.794.677-.932.409.071.792.211 1.15.398.103.161.173.341.173.534zm3.508.637c-.17-.391-.381-.76-.627-1.104l1.611-1.611c.301.144.625.232.962.268-.648.783-1.299 1.601-1.946 2.447zm1.564-6.122c.188-.189.438-.293.706-.293.267 0 .518.104.707.293.188.189.293.44.293.707 0 .268-.104.518-.293.706v.001c-.379.378-1.035.38-1.414-.001-.189-.188-.293-.438-.293-.706 0-.267.105-.518.294-.707zm-7.072-3.515c.552 0 1 .448 1 1s-.448 1-1 1-1-.448-1-1 .448-1 1-1zm-8.485 4.928c-.19-.189-.293-.439-.293-.706s.104-.518.293-.707c.189-.188.44-.293.707-.293.268 0 .518.104.706.293h.001c.188.189.293.44.293.707 0 .268-.104.518-.294.707-.376.379-1.033.378-1.413-.001zm-2.515 8.072c-.552 0-1-.448-1-1s.448-1 1-1 1 .448 1 1-.448 1-1 1zm3.928 7.485c-.376.378-1.033.378-1.413 0-.188-.189-.293-.44-.293-.707 0-.268.104-.518.293-.706v-.001c.189-.188.44-.293.707-.293.268 0 .518.104.707.294.189.188.293.438.293.706 0 .267-.105.518-.294.707zm7.072-4.485c-2.206 0-4-1.794-4-4 0-1.491.829-2.778 2.041-3.466-.024.153-.041.307-.041.466 0 1.654 1.346 3 3 3 1.155 0 2.149-.664 2.65-1.623.185.412.289.863.323 1.333-.933 1.31-1.837 2.671-2.682 4.062-.414.142-.845.228-1.291.228zm46 32c0 1.103-.897 2-2 2h-13c-1.654 0-3 1.346-3 3s1.346 3 3 3h4c.552 0 1 .448 1 1s-.448 1-1 1h-40c-.552 0-1-.448-1-1s.448-1 1-1h4c1.654 0 3-1.346 3-3s-1.346-3-3-3h-10c-.552 0-1-.448-1-1s.448-1 1-1h15.721c3.458 2.505 7.693 4 12.279 4 5.705 0 10.88-2.294 14.669-6h12.331c1.103 0 2 .897 2 2zm-29 2c-10.477 0-19-8.523-19-19 0-12.461 16.078-28.661 19-30.85 2.922 2.189 19 18.389 19 30.85 0 10.477-8.523 19-19 19zm29-47c0-1.654-1.346-3-3-3s-3 1.346-3 3 1.346 3 3 3 3-1.346 3-3zm-4 0c0-.552.448-1 1-1s1 .448 1 1-.448 1-1 1-1-.448-1-1z" fill="url(#SVGID_1_)"/></svg>